# This file uses centimeters as units for non-parametric coordinates.

mtllib bud3.mtl
g default
v -2.030431 0.016459 2.154457
v 2.278482 0.016459 2.154457
v -2.030431 0.016459 -2.154457
v 2.278482 0.016459 -2.154457
v 2.278482 1.152514 2.154457
v -2.030431 1.152514 2.154457
v -2.030431 1.152514 -2.154457
v 2.278482 1.152514 -2.154457
v 2.352997 1.152514 2.228971
v -2.104946 1.152514 2.228971
v 2.352997 8.791144 2.228971
v -2.104946 8.791144 2.228971
v -2.104946 1.152514 -2.228971
v -2.104946 8.791144 -2.228971
v 2.352997 8.791144 -2.228971
v 2.352997 1.152514 -2.228971
v 2.352997 8.466549 2.228971
v -2.104946 8.466549 2.228971
v -2.104946 8.466549 -2.228971
v 2.352997 8.466549 -2.228971
v 2.352997 8.573313 2.228971
v -2.104946 8.573313 2.228971
v -2.104946 8.573313 -2.228971
v 2.352997 8.573313 -2.228971
v 2.311831 8.512991 2.187805
v -2.063780 8.512991 2.187805
v -2.063780 8.512991 -2.187805
v 2.311831 8.512991 -2.187805
v 2.309827 1.475084 2.185801
v -2.061776 1.475084 2.185801
v -2.061776 1.475084 -2.185801
v 2.309827 1.475084 -2.185801
v -2.104946 1.518424 -2.228971
v -2.104946 1.518424 2.228971
v 2.352997 1.518424 2.228971
v 2.352997 1.518424 -2.228971
v -2.104946 1.401268 -2.228971
v -2.104946 1.401268 2.228971
v 2.352997 1.401268 2.228971
v 2.352997 1.401268 -2.228971
vt 0.156765 0.075138
vt 0.403224 0.075138
vt 0.403224 0.132262
vt 0.060270 0.670993
vt 0.403224 0.132262
vt 0.060270 0.670993
vt 0.156765 0.075138
vt 0.403224 0.075138
vt 0.156765 0.075138
vt 0.403224 0.075138
vt 0.403224 0.132262
vt 0.060270 0.670993
vt 0.156766 0.075138
vt 0.403224 0.075138
vt 0.403224 0.132262
vt 0.060270 0.670993
vt 0.003496 0.690592
vt 0.250669 0.690592
vt 0.250669 0.708477
vt 0.251843 0.155198
vt 0.497059 0.536536
vt 0.251843 0.536536
vt 0.497059 0.539111
vt 0.003496 0.671384
vt 0.250669 0.674729
vt 0.003496 0.674729
vt 0.250669 0.707585
vt 0.003496 0.707585
vt 0.003496 0.690592
vt 0.250669 0.690592
vt 0.497059 0.155198
vt 0.251843 0.155198
vt 0.497059 0.536536
vt 0.251843 0.536536
vt 0.250669 0.671384
vt 0.003496 0.671384
vt 0.250669 0.674729
vt 0.003496 0.674729
vt 0.250669 0.707585
vt 0.003496 0.707585
vt 0.497059 0.155198
vt 0.251843 0.155198
vt 0.003496 0.690592
vt 0.250669 0.690592
vt 0.497059 0.536537
vt 0.251843 0.536537
vt 0.250669 0.671384
vt 0.003496 0.671384
vt 0.250669 0.674729
vt 0.003496 0.674729
vt 0.250669 0.707585
vt 0.003496 0.707585
vt 0.003496 0.690395
vt 0.250669 0.690395
vt 0.497059 0.155002
vt 0.003496 0.708280
vt 0.497059 0.536340
vt 0.251843 0.536340
vt 0.250669 0.671188
vt 0.251843 0.538915
vt 0.250669 0.674532
vt 0.003496 0.674532
vt 0.250669 0.707389
vt 0.003496 0.707389
vt 0.325784 0.675507
vt 0.325784 0.675507
vt 0.055756 0.675407
vt 0.055756 0.675407
vt 0.325784 0.675507
vt 0.055756 0.675463
vt 0.325784 0.675507
vt 0.055756 0.675507
vt 0.335285 0.703919
vt 0.308030 0.703919
vt 0.308030 0.676664
vt 0.335285 0.676664
vt 0.251843 0.539111
vt 0.497059 0.538915
vt 0.250669 0.671384
vt 0.003496 0.671188
vt 0.251843 0.539111
vt 0.497059 0.539111
vt 0.251843 0.539111
vt 0.497059 0.539111
vt 0.003496 0.708477
vt 0.250669 0.708280
vt 0.497059 0.155198
vt 0.251843 0.155002
vt 0.003496 0.708477
vt 0.250669 0.708477
vt 0.003496 0.708477
vt 0.250669 0.708477
vt 0.321271 0.670993
vt 0.156766 0.132263
vt 0.156766 0.132263
vt 0.321271 0.670993
vt 0.156766 0.132263
vt 0.156766 0.132263
vt 0.321271 0.670993
vt 0.321271 0.670993
vt 0.251843 0.157612
vt 0.497059 0.157612
vt 0.497059 0.157612
vt 0.251843 0.157612
vt 0.497059 0.157612
vt 0.251843 0.157416
vt 0.251843 0.157612
vt 0.497059 0.157416
vt 0.003496 0.704384
vt 0.250669 0.704384
vt 0.250669 0.704384
vt 0.003496 0.704384
vt 0.250669 0.704384
vt 0.003496 0.704187
vt 0.003496 0.704384
vt 0.250669 0.704187
vn 0.000000 0.000000 1.000000
vn 0.000000 0.000000 1.000000
vn 0.000000 0.000000 1.000000
vn 0.000000 0.000000 1.000000
vn 0.000000 0.000000 -1.000000
vn 0.000000 0.000000 -1.000000
vn 0.000000 0.000000 -1.000000
vn 0.000000 0.000000 -1.000000
vn 1.000000 0.000000 0.000000
vn 1.000000 0.000000 0.000000
vn 1.000000 0.000000 0.000000
vn 1.000000 0.000000 0.000000
vn -1.000000 0.000000 0.000000
vn -1.000000 0.000000 0.000000
vn -1.000000 0.000000 0.000000
vn -1.000000 0.000000 0.000000
vn -0.000000 0.504834 0.863216
vn -0.000000 0.504834 0.863216
vn -0.000000 0.504834 0.863216
vn -0.000000 0.504834 0.863216
vn -0.863217 0.504833 0.000000
vn -0.863217 0.504833 0.000000
vn -0.863217 0.504833 0.000000
vn -0.863217 0.504833 0.000000
vn -0.000000 0.504834 -0.863216
vn -0.000000 0.504834 -0.863216
vn -0.000000 0.504834 -0.863216
vn -0.000000 0.504834 -0.863216
vn 0.863217 0.504833 -0.000000
vn 0.863217 0.504833 -0.000000
vn 0.863217 0.504833 -0.000000
vn 0.863217 0.504833 -0.000000
vn 0.000000 -1.000000 -0.000000
vn 0.000000 -1.000000 -0.000000
vn 0.000000 -1.000000 -0.000000
vn 0.000000 -1.000000 -0.000000
vn 0.000000 -1.000000 0.000000
vn 0.000000 -1.000000 0.000000
vn 0.000000 -1.000000 0.000000
vn 0.000000 -1.000000 0.000000
vn 0.000000 1.000000 -0.000000
vn 0.000000 1.000000 -0.000000
vn 0.000000 1.000000 -0.000000
vn 0.000000 1.000000 -0.000000
vn 0.000000 0.663321 0.748335
vn 0.000000 0.663321 0.748335
vn 0.000000 0.663321 0.748335
vn 0.000000 0.663321 0.748335
vn -0.748337 0.663319 -0.000000
vn -0.748337 0.663319 -0.000000
vn -0.748337 0.663319 -0.000000
vn -0.748337 0.663319 -0.000000
vn 0.000000 0.663320 -0.748336
vn 0.000000 0.663320 -0.748336
vn 0.000000 0.663320 -0.748336
vn 0.000000 0.663320 -0.748336
vn 0.748337 0.663319 0.000000
vn 0.748337 0.663319 0.000000
vn 0.748337 0.663319 0.000000
vn 0.748337 0.663319 0.000000
vn 0.000000 0.000000 1.000000
vn 0.000000 0.000000 1.000000
vn 0.000000 0.000000 1.000000
vn 0.000000 0.000000 1.000000
vn -1.000000 -0.000001 0.000000
vn -1.000000 -0.000001 0.000000
vn -1.000000 -0.000001 0.000000
vn -1.000000 -0.000001 0.000000
vn -0.000000 0.000000 -1.000000
vn -0.000000 0.000000 -1.000000
vn -0.000000 0.000000 -1.000000
vn -0.000000 0.000000 -1.000000
vn 1.000000 -0.000001 0.000000
vn 1.000000 -0.000001 0.000000
vn 1.000000 -0.000001 0.000000
vn 1.000000 -0.000001 0.000000
vn -0.000000 -0.563686 0.825989
vn -0.000000 -0.563686 0.825989
vn -0.000000 -0.563686 0.825989
vn -0.000000 -0.563686 0.825989
vn -0.825991 -0.563684 -0.000000
vn -0.825991 -0.563684 -0.000000
vn -0.825991 -0.563684 -0.000000
vn -0.825991 -0.563684 -0.000000
vn -0.000000 -0.563683 -0.825991
vn -0.000000 -0.563683 -0.825991
vn -0.000000 -0.563683 -0.825991
vn -0.000000 -0.563683 -0.825991
vn 0.825991 -0.563684 -0.000000
vn 0.825991 -0.563684 -0.000000
vn 0.825991 -0.563684 -0.000000
vn 0.825991 -0.563684 -0.000000
vn 0.000000 0.000000 1.000000
vn 0.000000 0.000000 1.000000
vn 0.000000 0.000000 1.000000
vn 0.000000 0.000000 1.000000
vn -1.000000 -0.000000 0.000000
vn -1.000000 -0.000000 0.000000
vn -1.000000 -0.000000 0.000000
vn -1.000000 -0.000000 0.000000
vn 0.000000 0.000000 -1.000000
vn 0.000000 0.000000 -1.000000
vn 0.000000 0.000000 -1.000000
vn 0.000000 0.000000 -1.000000
vn 1.000000 -0.000000 0.000000
vn 1.000000 -0.000000 0.000000
vn 1.000000 -0.000000 0.000000
vn 1.000000 -0.000000 0.000000
vn -0.708497 -0.705714 -0.000000
vn -0.708497 -0.705714 -0.000000
vn -0.708497 -0.705714 -0.000000
vn -0.708497 -0.705714 -0.000000
vn -0.000000 -0.705714 0.708496
vn -0.000000 -0.705714 0.708496
vn -0.000000 -0.705714 0.708496
vn -0.000000 -0.705714 0.708496
vn 0.708497 -0.705714 0.000000
vn 0.708497 -0.705714 0.000000
vn 0.708497 -0.705714 0.000000
vn 0.708497 -0.705714 0.000000
vn -0.000000 -0.705716 -0.708495
vn -0.000000 -0.705716 -0.708495
vn -0.000000 -0.705716 -0.708495
vn -0.000000 -0.705716 -0.708495
vn -1.000000 -0.000000 0.000000
vn -1.000000 -0.000000 0.000000
vn -1.000000 -0.000000 0.000000
vn -1.000000 -0.000000 0.000000
vn 0.000000 0.000000 1.000000
vn 0.000000 0.000000 1.000000
vn 0.000000 0.000000 1.000000
vn 0.000000 0.000000 1.000000
vn 1.000000 -0.000000 0.000000
vn 1.000000 -0.000000 0.000000
vn 1.000000 -0.000000 0.000000
vn 1.000000 -0.000000 0.000000
vn 0.000000 0.000000 -1.000000
vn 0.000000 0.000000 -1.000000
vn 0.000000 0.000000 -1.000000
vn 0.000000 0.000000 -1.000000
s off
g pCube2
usemtl initialShadingGroup
f 1/1/1 2/2/2 5/3/3 6/94/4
f 7/5/5 8/95/6 4/7/7 3/8/8
f 2/9/9 4/10/10 8/11/11 5/97/12
f 3/13/13 1/14/14 6/15/15 7/98/16
f 38/112/17 39/113/18 29/19/19 30/91/20
f 37/109/21 38/111/22 30/92/23 31/89/24
f 31/90/25 32/85/26 40/115/27 37/110/28
f 39/114/29 40/116/30 32/86/31 29/56/32
s 9
f 6/4/33 5/93/34 9/69/35 10/68/36
f 7/16/37 6/100/33 10/65/36 13/72/38
f 8/6/39 7/99/37 13/66/38 16/70/40
f 5/12/34 8/96/39 16/71/40 9/67/35
s off
f 14/73/41 12/74/42 11/75/43 15/76/44
f 18/22/45 17/21/46 25/23/47 26/83/48
f 19/34/49 18/33/50 26/84/51 27/81/52
f 27/82/53 28/77/54 20/46/55 19/45/56
f 17/58/57 20/57/58 28/78/59 25/60/60
f 22/26/61 21/25/62 11/27/63 12/28/64
f 23/38/65 22/37/66 12/39/67 14/40/68
f 14/51/69 15/52/70 24/50/71 23/49/72
f 21/62/73 24/61/74 15/63/75 11/64/76
f 26/24/77 25/79/78 21/25/79 22/26/80
f 27/36/81 26/35/82 22/37/83 23/38/84
f 23/49/85 24/50/86 28/48/87 27/47/88
f 25/80/89 28/59/90 24/61/91 21/62/92
f 34/104/93 35/105/94 17/21/95 18/22/96
f 33/101/97 34/103/98 18/33/99 19/34/100
f 19/45/101 20/46/102 36/107/103 33/102/104
f 35/106/105 36/108/106 20/57/107 17/58/108
f 31/32/109 30/31/110 34/103/111 33/101/112
f 30/20/113 29/87/114 35/105/115 34/104/116
f 29/88/117 32/55/118 36/108/119 35/106/120
f 33/102/121 36/107/122 32/42/123 31/41/124
f 13/29/125 10/30/126 38/111/127 37/109/128
f 10/17/129 9/18/130 39/113/131 38/112/132
f 9/53/133 16/54/134 40/116/135 39/114/136
f 37/110/137 40/115/138 16/43/139 13/44/140
