# This file uses centimeters as units for non-parametric coordinates.

mtllib bud1.mtl
g default
v -2.782999 0.038708 2.693318
v 2.603638 0.038708 2.693318
v -2.782999 0.038708 -2.693318
v 2.603638 0.038708 -2.693318
v 2.603638 1.465181 2.693318
v -2.782999 1.465181 2.693318
v -2.782999 1.465181 -2.693318
v 2.603638 1.465181 -2.693318
v 2.696790 1.465181 2.786470
v -2.876150 1.465181 2.786470
v 2.696790 15.668364 2.786470
v -2.876150 15.668364 2.786470
v -2.876150 1.465181 -2.786470
v -2.876150 15.668364 -2.786470
v 2.696790 15.668364 -2.786470
v 2.696790 1.465181 -2.786470
v 2.696790 15.229060 2.786470
v -2.876150 15.229060 2.786470
v -2.876150 15.229060 -2.786470
v 2.696790 15.229060 -2.786470
v 2.696790 15.400149 2.786470
v -2.876150 15.400149 2.786470
v -2.876150 15.400149 -2.786470
v 2.696790 15.400149 -2.786470
v 2.645328 15.303483 2.735008
v -2.824689 15.303483 2.735008
v -2.824689 15.303483 -2.735008
v 2.645328 15.303483 -2.735008
v 2.642822 1.982098 2.732503
v -2.822183 1.982098 2.732503
v -2.822183 1.982098 -2.732503
v 2.642822 1.982098 -2.732503
v -2.876150 2.051551 -2.786470
v -2.876150 2.051551 2.786470
v 2.696790 2.051551 2.786470
v 2.696790 2.051551 -2.786470
v -2.876150 1.863808 -2.786470
v -2.876150 1.863808 2.786470
v 2.696790 1.863808 2.786470
v 2.696790 1.863808 -2.786470
v -2.876150 5.416532 -2.786470
v -2.876150 5.416532 2.786470
v 2.696790 5.416532 2.786470
v 2.696790 5.416532 -2.786470
vt 0.689698 0.075138
vt 0.997725 0.075138
vt 0.997725 0.132262
vt 0.060270 0.633777
vt 0.997725 0.132262
vt 0.060270 0.633777
vt 0.689698 0.075138
vt 0.997725 0.075138
vt 0.689698 0.075138
vt 0.997725 0.075138
vt 0.997725 0.132262
vt 0.060270 0.633777
vt 0.689698 0.075138
vt 0.997725 0.075138
vt 0.997725 0.132262
vt 0.060270 0.633777
vt 0.003496 0.653376
vt 0.250669 0.653376
vt 0.250669 0.671261
vt 0.752623 0.135980
vt 0.999796 0.629818
vt 0.752623 0.629818
vt 0.999796 0.632393
vt 0.003496 0.634168
vt 0.250669 0.637513
vt 0.003496 0.637513
vt 0.250669 0.670369
vt 0.003496 0.670369
vt 0.003496 0.653376
vt 0.250669 0.653376
vt 0.999796 0.135980
vt 0.752623 0.135980
vt 0.999796 0.629818
vt 0.752623 0.629818
vt 0.250669 0.634168
vt 0.003496 0.634168
vt 0.250669 0.637513
vt 0.003496 0.637513
vt 0.250669 0.670369
vt 0.003496 0.670369
vt 0.999796 0.135980
vt 0.752623 0.135980
vt 0.003496 0.653376
vt 0.250669 0.653376
vt 0.999796 0.629818
vt 0.752623 0.629818
vt 0.250669 0.634168
vt 0.003496 0.634168
vt 0.250669 0.637513
vt 0.003496 0.637513
vt 0.250669 0.670369
vt 0.003496 0.670369
vt 0.003496 0.653179
vt 0.250669 0.653179
vt 0.999796 0.135783
vt 0.003496 0.671064
vt 0.999796 0.629622
vt 0.752623 0.629622
vt 0.250669 0.633972
vt 0.752623 0.632197
vt 0.250669 0.637316
vt 0.003496 0.637316
vt 0.250669 0.670173
vt 0.003496 0.670173
vt 0.325784 0.638290
vt 0.325784 0.638290
vt 0.055756 0.638191
vt 0.055756 0.638191
vt 0.325784 0.638290
vt 0.055756 0.638246
vt 0.325784 0.638290
vt 0.055756 0.638290
vt 0.335285 0.666703
vt 0.308030 0.666703
vt 0.308030 0.639448
vt 0.335285 0.639448
vt 0.752623 0.632393
vt 0.999796 0.632197
vt 0.250669 0.634168
vt 0.003496 0.633972
vt 0.752623 0.632393
vt 0.999796 0.632393
vt 0.752623 0.632393
vt 0.999796 0.632393
vt 0.003496 0.671261
vt 0.250669 0.671064
vt 0.999796 0.135980
vt 0.752623 0.135783
vt 0.003496 0.671261
vt 0.250669 0.671261
vt 0.003496 0.671261
vt 0.250669 0.671261
vt 0.321271 0.633777
vt 0.689698 0.132263
vt 0.689698 0.132263
vt 0.321271 0.633777
vt 0.689698 0.132263
vt 0.689698 0.132263
vt 0.321271 0.633777
vt 0.321271 0.633777
vt 0.752623 0.138394
vt 0.999796 0.138394
vt 0.999796 0.138394
vt 0.752623 0.138394
vt 0.999796 0.138394
vt 0.752623 0.138197
vt 0.752623 0.138394
vt 0.999796 0.138197
vt 0.003496 0.667168
vt 0.250669 0.667168
vt 0.250669 0.667168
vt 0.003496 0.667168
vt 0.250669 0.667168
vt 0.003496 0.666971
vt 0.003496 0.667168
vt 0.250669 0.666971
vt 0.752623 0.135628
vt 0.999796 0.135629
vt 0.999796 0.319356
vt 0.752623 0.319356
vt 0.999796 0.319356
vt 0.752623 0.319159
vt 0.752623 0.319356
vt 0.999796 0.319159
vt 0.999796 0.135432
vt 0.752623 0.135629
vt 0.752623 0.319356
vt 0.999796 0.319356
vt 0.999796 0.135628
vt 0.752623 0.135432
vt 0.999796 0.135628
vt 0.752623 0.135628
vn 0.000000 0.000000 1.000000
vn 0.000000 0.000000 1.000000
vn 0.000000 0.000000 1.000000
vn 0.000000 0.000000 1.000000
vn 0.000000 0.000000 -1.000000
vn 0.000000 0.000000 -1.000000
vn 0.000000 0.000000 -1.000000
vn 0.000000 0.000000 -1.000000
vn 1.000000 0.000000 0.000000
vn 1.000000 0.000000 0.000000
vn 1.000000 0.000000 0.000000
vn 1.000000 0.000000 0.000000
vn -1.000000 0.000000 0.000000
vn -1.000000 0.000000 0.000000
vn -1.000000 0.000000 0.000000
vn -1.000000 0.000000 0.000000
vn -0.000000 0.415071 0.909789
vn -0.000000 0.415071 0.909789
vn -0.000000 0.415071 0.909789
vn -0.000000 0.415071 0.909789
vn -0.909789 0.415070 -0.000000
vn -0.909789 0.415070 -0.000000
vn -0.909789 0.415070 -0.000000
vn -0.909789 0.415070 -0.000000
vn -0.000000 0.415071 -0.909789
vn -0.000000 0.415071 -0.909789
vn -0.000000 0.415071 -0.909789
vn -0.000000 0.415071 -0.909789
vn 0.909789 0.415070 0.000000
vn 0.909789 0.415070 0.000000
vn 0.909789 0.415070 0.000000
vn 0.909789 0.415070 0.000000
vn 0.000000 -1.000000 -0.000001
vn 0.000000 -1.000000 -0.000001
vn 0.000000 -1.000000 -0.000001
vn 0.000000 -1.000000 -0.000001
vn 0.000000 -1.000000 0.000001
vn 0.000000 -1.000000 0.000001
vn 0.000000 -1.000000 0.000001
vn 0.000000 -1.000000 0.000001
vn 0.000000 1.000000 0.000000
vn 0.000000 1.000000 0.000000
vn 0.000000 1.000000 0.000000
vn 0.000000 1.000000 0.000000
vn -0.000000 0.568752 0.822509
vn -0.000000 0.568752 0.822509
vn -0.000000 0.568752 0.822509
vn -0.000000 0.568752 0.822509
vn -0.822510 0.568750 -0.000000
vn -0.822510 0.568750 -0.000000
vn -0.822510 0.568750 -0.000000
vn -0.822510 0.568750 -0.000000
vn -0.000000 0.568750 -0.822511
vn -0.000000 0.568750 -0.822511
vn -0.000000 0.568750 -0.822511
vn -0.000000 0.568750 -0.822511
vn 0.822510 0.568750 0.000000
vn 0.822510 0.568750 0.000000
vn 0.822510 0.568750 0.000000
vn 0.822510 0.568750 0.000000
vn 0.000000 0.000000 1.000000
vn 0.000000 0.000000 1.000000
vn 0.000000 0.000000 1.000000
vn 0.000000 0.000000 1.000000
vn -1.000000 -0.000001 0.000000
vn -1.000000 -0.000001 0.000000
vn -1.000000 -0.000001 0.000000
vn -1.000000 -0.000001 0.000000
vn 0.000000 0.000000 -1.000000
vn 0.000000 0.000000 -1.000000
vn 0.000000 0.000000 -1.000000
vn 0.000000 0.000000 -1.000000
vn 1.000000 -0.000001 0.000000
vn 1.000000 -0.000001 0.000000
vn 1.000000 -0.000001 0.000000
vn 1.000000 -0.000001 0.000000
vn 0.000000 -0.469924 0.882707
vn 0.000000 -0.469924 0.882707
vn 0.000000 -0.469924 0.882707
vn 0.000000 -0.469924 0.882707
vn -0.882707 -0.469923 -0.000000
vn -0.882707 -0.469923 -0.000000
vn -0.882707 -0.469923 -0.000000
vn -0.882707 -0.469923 -0.000000
vn 0.000000 -0.469923 -0.882708
vn 0.000000 -0.469923 -0.882708
vn 0.000000 -0.469923 -0.882708
vn 0.000000 -0.469923 -0.882708
vn 0.882707 -0.469923 0.000000
vn 0.882707 -0.469923 0.000000
vn 0.882707 -0.469923 0.000000
vn 0.882707 -0.469923 0.000000
vn -0.000000 0.000000 1.000000
vn -0.000000 0.000000 1.000000
vn -0.000000 0.000000 1.000000
vn -0.000000 0.000000 1.000000
vn -1.000000 -0.000000 0.000000
vn -1.000000 -0.000000 0.000000
vn -1.000000 -0.000000 0.000000
vn -1.000000 -0.000000 0.000000
vn -0.000000 0.000000 -1.000000
vn -0.000000 0.000000 -1.000000
vn -0.000000 0.000000 -1.000000
vn -0.000000 0.000000 -1.000000
vn 1.000000 -0.000000 0.000000
vn 1.000000 -0.000000 0.000000
vn 1.000000 -0.000000 0.000000
vn 1.000000 -0.000000 0.000000
vn -0.789634 -0.613578 -0.000000
vn -0.789634 -0.613578 -0.000000
vn -0.789634 -0.613578 -0.000000
vn -0.789634 -0.613578 -0.000000
vn -0.000000 -0.613579 0.789633
vn -0.000000 -0.613579 0.789633
vn -0.000000 -0.613579 0.789633
vn -0.000000 -0.613579 0.789633
vn 0.789634 -0.613578 0.000000
vn 0.789634 -0.613578 0.000000
vn 0.789634 -0.613578 0.000000
vn 0.789634 -0.613578 0.000000
vn -0.000000 -0.613579 -0.789634
vn -0.000000 -0.613579 -0.789634
vn -0.000000 -0.613579 -0.789634
vn -0.000000 -0.613579 -0.789634
vn -1.000000 -0.000000 0.000000
vn -1.000000 -0.000000 0.000000
vn -1.000000 -0.000000 0.000000
vn -1.000000 -0.000000 0.000000
vn 0.000000 0.000000 1.000000
vn 0.000000 0.000000 1.000000
vn 0.000000 0.000000 1.000000
vn 0.000000 0.000000 1.000000
vn 1.000000 -0.000000 0.000000
vn 1.000000 -0.000000 0.000000
vn 1.000000 -0.000000 0.000000
vn 1.000000 -0.000000 0.000000
vn 0.000000 0.000000 -1.000000
vn 0.000000 0.000000 -1.000000
vn 0.000000 0.000000 -1.000000
vn 0.000000 0.000000 -1.000000
vn -1.000000 -0.000000 0.000000
vn -1.000000 -0.000000 0.000000
vn -1.000000 -0.000000 0.000000
vn -1.000000 -0.000000 0.000000
vn -0.000000 0.000000 1.000000
vn -0.000000 0.000000 1.000000
vn -0.000000 0.000000 1.000000
vn -0.000000 0.000000 1.000000
vn 1.000000 -0.000000 0.000000
vn 1.000000 -0.000000 0.000000
vn 1.000000 -0.000000 0.000000
vn 1.000000 -0.000000 0.000000
vn -0.000000 0.000000 -1.000000
vn -0.000000 0.000000 -1.000000
vn -0.000000 0.000000 -1.000000
vn -0.000000 0.000000 -1.000000
s off
g pCube7
usemtl initialShadingGroup
f 1/1/1 2/2/2 5/3/3 6/94/4
f 7/5/5 8/95/6 4/7/7 3/8/8
f 2/9/9 4/10/10 8/11/11 5/97/12
f 3/13/13 1/14/14 6/15/15 7/98/16
f 38/112/17 39/113/18 29/19/19 30/91/20
f 37/109/21 38/111/22 30/92/23 31/89/24
f 31/90/25 32/85/26 40/115/27 37/110/28
f 39/114/29 40/116/30 32/86/31 29/56/32
s 9
f 6/4/33 5/93/34 9/69/35 10/68/36
f 7/16/37 6/100/33 10/65/36 13/72/38
f 8/6/39 7/99/37 13/66/38 16/70/40
f 5/12/34 8/96/39 16/71/40 9/67/35
s off
f 14/73/41 12/74/42 11/75/43 15/76/44
f 18/22/45 17/21/46 25/23/47 26/83/48
f 19/34/49 18/33/50 26/84/51 27/81/52
f 27/82/53 28/77/54 20/46/55 19/45/56
f 17/58/57 20/57/58 28/78/59 25/60/60
f 22/26/61 21/25/62 11/27/63 12/28/64
f 23/38/65 22/37/66 12/39/67 14/40/68
f 14/51/69 15/52/70 24/50/71 23/49/72
f 21/62/73 24/61/74 15/63/75 11/64/76
f 26/24/77 25/79/78 21/25/79 22/26/80
f 27/36/81 26/35/82 22/37/83 23/38/84
f 23/49/85 24/50/86 28/48/87 27/47/88
f 25/80/89 28/59/90 24/61/91 21/62/92
f 42/132/93 43/129/94 17/21/95 18/22/96
f 41/117/97 42/131/98 18/33/99 19/34/100
f 19/45/101 20/46/102 44/126/103 41/118/104
f 43/130/105 44/125/106 20/57/107 17/58/108
f 31/32/109 30/31/110 34/103/111 33/101/112
f 30/20/113 29/87/114 35/105/115 34/104/116
f 29/88/117 32/55/118 36/108/119 35/106/120
f 33/102/121 36/107/122 32/42/123 31/41/124
f 13/29/125 10/30/126 38/111/127 37/109/128
f 10/17/129 9/18/130 39/113/131 38/112/132
f 9/53/133 16/54/134 40/116/135 39/114/136
f 37/110/137 40/115/138 16/43/139 13/44/140
f 33/101/141 34/103/142 42/119/143 41/127/144
f 34/104/145 35/105/146 43/121/147 42/120/148
f 35/106/149 36/108/150 44/124/151 43/122/152
f 41/128/153 44/123/154 36/107/155 33/102/156
